<svg width="1006" height="1006" viewBox="0 0 1006 1006" fill="none" xmlns="http://www.w3.org/2000/svg">
<path d="M436.742 8.7537C480.148 -2.87696 525.851 -2.87696 569.258 8.75369L692.742 41.8413C736.149 53.472 775.728 76.3235 807.504 108.099L897.901 198.496C929.677 230.272 952.528 269.852 964.159 313.258L997.246 436.742C1008.88 480.148 1008.88 525.851 997.246 569.258L964.159 692.742C952.528 736.148 929.677 775.728 897.901 807.504L807.504 897.901C775.728 929.677 736.148 952.528 692.742 964.159L569.258 997.246C525.852 1008.88 480.149 1008.88 436.742 997.246L313.258 964.159C269.852 952.528 230.272 929.677 198.496 897.901L108.099 807.504C76.3235 775.728 53.472 736.149 41.8413 692.742L8.7537 569.258C-2.87696 525.852 -2.87696 480.149 8.75369 436.742L41.8413 313.258C53.472 269.851 76.3235 230.272 108.099 198.496L198.496 108.099C230.272 76.3235 269.851 53.472 313.258 41.8413L436.742 8.7537Z" fill="#344E41"/>
</svg>
